<!DOCTYPE svg PUBLIC "-//W3C//DTD SVG 20010904//EN" "http://www.w3.org/TR/2001/REC-SVG-20010904/DTD/svg10.dtd">
<svg version="1.0" xmlns="http://www.w3.org/2000/svg" width="294px" height="85px" viewBox="0 0 2940 850" preserveAspectRatio="xMidYMid meet">
<g id="layer101" fill="#db202c" stroke="none">
 <path d="M2776 711 l-39 -6 -36 -122 c-20 -67 -39 -119 -42 -115 -4 4 -22 53 -40 110 l-33 102 -43 0 c-24 0 -43 -4 -43 -8 0 -5 23 -73 51 -151 l50 -142 -45 -130 c-25 -72 -46 -134 -46 -140 0 -5 21 -9 48 -9 l47 0 29 96 c16 52 32 97 36 99 3 2 21 -41 39 -96 l32 -99 44 0 44 0 -45 132 c-24 73 -44 141 -44 151 0 10 21 85 46 165 26 81 47 151 48 156 2 12 -13 14 -58 7z"/>
 <path d="M114 673 c3 -21 21 -139 40 -263 19 -124 38 -244 42 -268 l7 -43 71 3 71 3 46 280 c25 154 44 283 42 288 -2 4 -24 7 -47 7 -47 0 -56 -11 -56 -73 0 -28 -1 -28 -57 -25 l-58 3 -10 60 -10 60 -44 3 -43 3 6 -38z m196 -184 c0 -15 -31 -213 -37 -239 -7 -27 -41 152 -42 220 -1 35 -1 36 39 32 22 -2 40 -8 40 -13z"/>
 <path d="M480 385 l0 -285 59 0 60 0 15 53 c8 28 27 97 43 152 l28 100 3 -152 3 -153 44 0 45 0 -2 273 -3 272 -50 3 -50 3 -49 -178 c-27 -98 -53 -182 -57 -188 -5 -5 -9 74 -9 182 0 207 1 203 -56 203 l-24 0 0 -285z"/>
 <path d="M2378 663 c-17 -4 -18 -26 -18 -284 l0 -279 45 0 45 0 0 285 0 285 -27 -1 c-16 -1 -36 -3 -45 -6z"/>
 <path d="M2275 655 c-5 -2 -54 -7 -107 -10 l-98 -7 0 -269 0 -269 45 0 45 0 2 233 3 232 75 5 75 5 0 40 c0 38 -12 50 -40 40z"/>
 <path d="M840 371 l0 -271 50 0 50 0 -2 268 -3 267 -47 3 -48 3 0 -270z"/>
 <path d="M1000 366 l0 -266 68 0 68 0 28 157 c16 87 32 166 35 176 4 10 20 -61 35 -158 l29 -175 68 0 69 0 0 260 0 260 -45 0 -45 0 0 -172 c0 -94 -3 -169 -6 -166 -3 3 -17 79 -32 169 l-28 164 -46 3 -46 3 -16 -93 c-45 -250 -40 -243 -46 -63 l-5 160 -42 3 -43 3 0 -265z"/>
 <path d="M1780 365 l0 -265 126 0 125 0 -3 33 -3 32 -77 3 -78 3 0 79 0 80 60 0 60 0 0 35 0 35 -60 0 -60 0 0 115 0 115 -45 0 -45 0 0 -265z"/>
 <path d="M1460 360 l0 -260 130 0 130 0 0 35 0 35 -80 0 -80 0 0 75 0 75 65 0 65 0 0 35 0 35 -65 0 -65 0 0 74 0 75 80 7 80 7 0 33 0 34 -130 0 -130 0 0 -260z"/>
 </g>

</svg>